PathFileType	4	(X/Y/Z)	D:\TRACE\v60_Jaco2_6-2-23\JustBodyDRS_Motion1_1-platform.trc
DataRate	CameraRate	NumFrames	NumMarkers	Units	OrigDataRate	OrigDataStartFrame	OrigNumFrames
100.00	100.00	      61	5	mm	100.00	5626	      7500
Frame#	Time	Left_Front			Right_Front			Left_Aft			Right_Aft			Post			
		X1	Y1	Z1	X2	Y2	Z2	X3	Y3	Z3	X4	Y4	Z4	X5	Y5	Z5	

5626	56.250	-837.14215	-7.15350	-642.65942	732.64899	-6.05315	-647.66083	-745.26331	18.43886	492.66479	697.09747	18.61927	501.75385	-51.34400	1283.58850	-996.62115	
5627	56.260	-838.05878	-6.57733	-642.30249	731.99298	-5.76820	-647.53168	-745.81342	18.18436	492.79294	696.08051	18.14437	501.70044	-51.70953	1284.22839	-995.70294	
5628	56.270	-838.84509	-6.14027	-642.10040	731.13660	-5.02727	-647.46332	-746.59991	17.88128	492.82184	694.93982	17.80258	501.86295	-52.61429	1285.16113	-994.48169	
5629	56.280	-839.13312	-5.78522	-641.74121	730.60596	-4.72008	-647.47986	-747.31281	17.74617	492.84476	694.57916	17.59927	502.05020	-53.15879	1285.70056	-993.86786	
5630	56.290	-840.25391	-5.73251	-641.90582	729.90887	-4.56874	-647.20337	-748.11102	17.57436	493.06085	694.04578	17.27279	502.22806	-54.27835	1286.54700	-992.91852	
5631	56.300	-840.84784	-5.65767	-641.85590	729.24860	-4.22393	-647.05151	-748.95148	17.28138	493.09146	693.22607	16.85249	502.25385	-54.39344	1287.08752	-991.96948	
5632	56.310	-841.83105	-5.04671	-641.62988	728.46661	-3.69741	-647.12390	-749.37299	16.98869	493.35086	692.46924	16.60671	502.47699	-54.85599	1287.66101	-990.82898	
5633	56.320	-842.58331	-4.30073	-641.87421	727.62671	-3.28071	-647.15009	-750.27448	16.75712	493.39923	692.18134	16.19929	502.66019	-56.19744	1288.42810	-990.08246	
5634	56.330	-842.72461	-3.52659	-641.46075	727.07410	-2.55382	-646.76648	-750.99512	16.39573	493.45813	691.43884	15.68507	502.70532	-56.56078	1289.16895	-989.12292	
5635	56.340	-843.37561	-3.15777	-641.45325	726.62939	-2.10779	-646.64008	-751.44611	16.07360	493.60770	690.54675	15.33107	502.75726	-57.25090	1289.84180	-987.99036	
5636	56.350	-843.98364	-2.94945	-641.25244	725.99310	-1.68169	-646.60547	-751.91296	15.91927	493.78433	690.02448	15.06932	502.85773	-57.86669	1290.30872	-987.16235	
5637	56.360	-844.90216	-2.57195	-641.21362	725.41650	-1.43320	-646.53143	-752.44238	15.34364	493.80554	689.56451	14.81880	502.96997	-58.34105	1291.25891	-985.58020	
5638	56.370	-845.21472	-2.21734	-641.40247	724.78094	-1.01311	-646.34784	-753.08014	15.07476	493.93503	689.00085	14.48206	503.04922	-58.85203	1291.83533	-984.81573	
5639	56.380	-845.77930	-1.59260	-641.13702	724.29370	-0.57821	-646.18994	-753.60577	14.86131	494.11697	688.30951	14.03467	503.13126	-59.29841	1292.34290	-983.65753	
5640	56.390	-845.97827	-1.10372	-640.56628	723.74445	-0.13589	-646.14612	-754.10944	14.63201	494.32907	687.46478	13.64602	503.25900	-59.44822	1292.89636	-982.91028	
5641	56.400	-846.25488	-0.78048	-640.33307	723.42511	0.37001	-646.16565	-754.68732	14.30444	494.40582	687.34106	13.53991	503.40015	-60.57554	1293.75171	-982.15747	
5642	56.410	-846.97955	-0.26107	-640.49957	723.10638	0.93274	-646.05243	-755.07874	14.00263	494.44037	687.07251	13.31595	503.59473	-60.96162	1294.58728	-981.67950	
5643	56.420	-847.71808	0.15467	-640.64197	722.47559	1.22593	-645.98077	-755.54456	13.79581	494.55823	686.87030	13.05485	503.80487	-61.55327	1295.22473	-980.63440	
5644	56.430	-848.25873	0.79995	-640.57275	721.96716	1.52338	-645.77814	-756.03448	13.39371	494.67459	686.06274	12.57789	503.81918	-61.60303	1296.00940	-979.78137	
5645	56.440	-848.59448	1.31445	-640.50195	721.43384	2.26164	-645.59222	-756.44073	13.11890	494.68906	685.67035	12.32743	503.89316	-61.96294	1296.60181	-978.61884	
5646	56.450	-848.81885	1.67616	-640.37939	721.14777	2.87932	-645.49054	-756.70715	12.91483	494.69455	685.27655	11.90991	504.04822	-62.21006	1297.14111	-977.78876	
5647	56.460	-849.24432	2.39481	-640.28619	721.03815	3.13385	-645.50311	-757.10120	12.73667	495.01901	685.04327	11.59871	504.17801	-62.83521	1297.86230	-976.39447	
5648	56.470	-849.43927	2.59828	-640.17297	720.60950	3.60295	-645.48114	-757.52393	12.37934	495.18317	684.78229	11.32104	504.31201	-63.29472	1298.85400	-975.61182	
5649	56.480	-849.58325	2.78958	-640.00250	720.46289	3.93963	-645.37585	-757.84888	11.90584	495.26514	684.59375	10.99802	504.39737	-63.26603	1299.34167	-974.04730	
5650	56.490	-849.86926	3.19968	-639.78052	720.37549	4.23924	-645.11932	-757.98792	11.62953	495.44763	684.39227	10.58211	504.58469	-63.60876	1299.84033	-972.62531	
5651	56.500	-850.09283	3.71218	-639.63379	720.03082	4.71385	-645.08252	-758.19543	11.40973	495.61188	684.84741	10.93591	504.61823	-63.63731	1300.50366	-971.76526	
5652	56.510	-850.27167	4.16865	-639.53900	719.94952	5.60082	-644.84906	-758.35443	11.23377	495.73990	683.95245	10.13312	504.64890	-63.70355	1301.20020	-971.07141	
5653	56.520	-850.54254	4.75261	-639.28894	719.78967	6.01593	-644.70013	-758.48767	11.01689	495.79196	683.92761	9.89648	505.03018	-63.82617	1301.76233	-970.34766	
5654	56.530	-850.70636	5.22901	-639.21179	719.66583	6.27421	-644.67438	-758.66382	10.59922	495.85162	683.54724	9.49810	505.06741	-63.88822	1302.31323	-969.41998	
5655	56.540	-850.68237	5.57400	-639.18335	719.43567	6.56704	-644.60492	-758.75208	10.14292	495.80658	682.59650	8.49728	504.94519	-64.15209	1303.17554	-968.81299	
5656	56.550	-850.69159	5.92607	-639.11597	719.22888	6.91022	-644.49646	-758.69495	9.70381	495.91803	682.79242	8.56616	505.06216	-64.42609	1303.81580	-968.18567	
5657	56.560	-850.76337	6.44621	-638.97845	719.21222	7.28968	-644.33899	-758.71399	9.40693	496.04013	683.02429	8.36239	505.20441	-64.24937	1304.46765	-967.33124	
5658	56.570	-850.86713	6.84407	-638.84229	719.33502	7.73063	-644.13837	-758.74939	9.22494	496.10492	683.08569	8.17423	505.38986	-64.70906	1304.98059	-966.43927	
5659	56.580	-850.91705	7.21272	-638.74036	719.37543	8.43740	-644.09717	-758.76996	9.04490	496.08667	682.98163	7.66450	505.59442	-64.48534	1305.76843	-965.52209	
5660	56.590	-850.93884	7.43204	-638.69019	719.34418	8.82453	-644.09900	-758.83386	8.71806	496.19397	683.05640	7.41786	505.62939	-64.59325	1306.33582	-964.16736	
5661	56.600	-850.93542	8.01992	-638.75226	719.22723	9.12819	-644.14532	-758.84918	8.37051	496.35944	683.18231	7.18858	505.68021	-64.48557	1306.87598	-963.26990	
5662	56.610	-850.94360	8.72966	-638.75256	719.22260	9.56579	-643.96912	-758.89423	8.02372	496.49765	683.21234	7.00534	505.74673	-64.22668	1307.64221	-961.79108	
5663	56.620	-850.87427	9.20283	-638.68604	719.07745	9.93538	-643.92090	-758.87433	7.76342	496.71826	682.94135	6.58014	505.75165	-64.63448	1308.27515	-961.11713	
5664	56.630	-850.86969	9.67184	-638.38959	719.14508	10.52503	-643.72040	-758.80652	7.54448	496.79156	682.87445	6.13094	505.85507	-64.45530	1308.93848	-959.98163	
5665	56.640	-850.94067	10.06826	-638.31055	719.44977	10.94744	-643.50763	-758.83490	7.24418	496.88843	682.91620	5.86577	505.86966	-64.34446	1309.57397	-958.97473	
5666	56.650	-850.88483	10.44848	-638.26666	719.31366	11.34003	-643.52618	-758.80939	6.88858	497.14706	682.99310	5.64231	506.01373	-64.15940	1310.09229	-958.36029	
5667	56.660	-850.71722	10.67983	-638.26630	719.35046	11.47554	-643.46558	-758.74841	6.53149	497.19016	683.21069	5.39007	506.21130	-64.07928	1310.63806	-957.53363	
5668	56.670	-850.44495	11.29066	-638.06604	719.54230	11.78078	-643.32025	-758.69611	6.29665	497.33890	683.41046	5.08400	506.33319	-64.34673	1311.42249	-956.90430	
5669	56.680	-850.23926	11.65879	-637.80292	719.88940	12.29018	-643.28149	-758.49274	5.98718	497.41599	683.86694	4.68996	506.31772	-63.72252	1312.31787	-955.74329	
5670	56.690	-850.09869	11.79226	-637.46478	720.21539	13.11240	-643.08221	-758.22668	5.75501	497.54175	684.30432	4.54804	506.48596	-63.40755	1312.85303	-955.02789	
5671	56.700	-849.73706	12.28038	-637.38562	720.49829	13.23936	-642.97034	-757.83972	5.29709	497.63629	684.64240	4.25405	506.72958	-63.28511	1313.20093	-953.88770	
5672	56.710	-849.42444	12.87277	-637.36603	720.65692	13.41824	-642.98962	-757.46252	5.00150	497.68738	684.72876	3.99895	506.80032	-62.75863	1313.90125	-952.76172	
5673	56.720	-849.33380	13.34431	-637.41803	720.67682	14.02015	-642.95300	-757.35901	4.94266	497.66916	684.85522	3.51244	506.77740	-62.87343	1314.11963	-951.55389	
5674	56.730	-849.15326	13.81865	-637.34149	720.86261	14.46995	-642.84717	-757.09869	4.62124	497.69852	685.01917	3.25245	506.79321	-62.48959	1314.66467	-950.73431	
5675	56.740	-848.87103	14.12389	-637.30261	721.05756	14.69902	-642.76495	-756.81793	4.42449	497.72009	685.13629	3.11114	506.86212	-61.99331	1315.11243	-949.92676	
5676	56.750	-848.40076	14.59280	-637.18744	721.31287	15.19884	-642.61554	-756.53961	4.29243	497.80142	685.40204	2.80351	507.06146	-61.99393	1315.71667	-949.37280	
5677	56.760	-848.27002	14.93964	-637.28558	721.86859	15.47194	-642.39746	-756.19086	4.09270	497.90204	685.69830	2.27214	507.16281	-61.57648	1316.42773	-948.81171	
5678	56.770	-847.68622	15.06837	-637.30505	722.40900	15.78202	-642.34332	-755.80310	3.78415	498.11166	686.39587	2.25859	507.26404	-61.39286	1317.08557	-948.37384	
5679	56.780	-847.31079	15.49412	-637.16638	722.87787	16.06661	-642.34619	-755.48291	3.58931	498.25500	687.01343	2.30951	507.39597	-60.79784	1317.51929	-947.92371	
5680	56.790	-846.94318	16.04159	-637.01251	723.17084	16.67086	-642.24866	-754.97211	3.20851	498.36044	687.41229	1.85125	507.49829	-60.15796	1318.30688	-947.16632	
5681	56.800	-846.45789	16.64862	-636.94000	723.48700	17.28176	-642.20856	-754.58282	2.86004	498.48331	687.79797	1.48642	507.46057	-59.93474	1318.75281	-946.45557	
5682	56.810	-845.91650	16.95740	-636.79285	723.80176	17.48795	-642.15845	-754.18884	2.62990	498.49814	687.65509	1.22925	507.56311	-59.34929	1319.18262	-945.02411	
5683	56.820	-845.52905	17.14533	-636.57581	724.30182	17.77221	-641.99805	-753.69745	2.41955	498.48688	688.26929	0.80036	507.61426	-59.05831	1319.97998	-944.31366	
5684	56.830	-845.13599	17.49666	-636.37134	724.82227	18.17589	-641.94818	-753.31952	2.14711	498.58347	688.97253	0.57097	507.75839	-58.60207	1320.57935	-942.60846	
5685	56.840	-844.70770	18.21507	-636.23389	725.44025	18.38612	-641.75061	-753.02551	1.88085	498.65533	689.71674	0.56162	507.91031	-58.19411	1321.06299	-941.80566	
5686	56.850	-844.41290	18.39256	-636.25677	725.74615	18.78901	-641.53070	-752.47192	1.58238	498.74036	689.97076	0.22211	507.95230	-57.52339	1321.46082	-940.43848	
